<mxfile host="app.diagrams.net" modified="2023-09-13T15:04:27.816Z" agent="Mozilla/5.0 (Windows NT 10.0; Win64; x64) AppleWebKit/537.36 (KHTML, like Gecko) Chrome/116.0.0.0 Safari/537.36" etag="qKijqul8i0Cxz7iGKXuK" version="21.7.5" type="device">
  <diagram name="Страница — 1" id="5GhnEZ0GhOM9HnMMlCDO">
    <mxGraphModel dx="1434" dy="790" grid="1" gridSize="10" guides="1" tooltips="1" connect="1" arrows="1" fold="1" page="1" pageScale="1" pageWidth="827" pageHeight="1169" math="0" shadow="0">
      <root>
        <mxCell id="0" />
        <mxCell id="1" parent="0" />
        <mxCell id="AeEtlu6i-WRHQ5X1fALI-1" value="Пользователь" style="shape=umlActor;verticalLabelPosition=bottom;verticalAlign=top;html=1;outlineConnect=0;" vertex="1" parent="1">
          <mxGeometry x="400" y="310" width="40" height="80" as="geometry" />
        </mxCell>
        <mxCell id="AeEtlu6i-WRHQ5X1fALI-8" value="Просмотр контента по категориям" style="rounded=0;whiteSpace=wrap;html=1;" vertex="1" parent="1">
          <mxGeometry x="520" y="320" width="230" height="50" as="geometry" />
        </mxCell>
        <mxCell id="AeEtlu6i-WRHQ5X1fALI-9" value="" style="endArrow=classic;html=1;rounded=0;" edge="1" parent="1">
          <mxGeometry width="50" height="50" relative="1" as="geometry">
            <mxPoint x="450" y="345" as="sourcePoint" />
            <mxPoint x="510" y="345" as="targetPoint" />
          </mxGeometry>
        </mxCell>
        <mxCell id="AeEtlu6i-WRHQ5X1fALI-10" value="Просмотр контента по популярности" style="rounded=0;whiteSpace=wrap;html=1;" vertex="1" parent="1">
          <mxGeometry x="70" y="320" width="230" height="50" as="geometry" />
        </mxCell>
        <mxCell id="AeEtlu6i-WRHQ5X1fALI-11" value="" style="endArrow=classic;html=1;rounded=0;" edge="1" parent="1">
          <mxGeometry width="50" height="50" relative="1" as="geometry">
            <mxPoint x="380" y="345" as="sourcePoint" />
            <mxPoint x="310" y="344.5" as="targetPoint" />
          </mxGeometry>
        </mxCell>
        <mxCell id="AeEtlu6i-WRHQ5X1fALI-12" value="Просмотр контента по цене" style="rounded=0;whiteSpace=wrap;html=1;" vertex="1" parent="1">
          <mxGeometry x="460" y="470" width="280" height="50" as="geometry" />
        </mxCell>
        <mxCell id="AeEtlu6i-WRHQ5X1fALI-13" value="" style="endArrow=classic;html=1;rounded=0;" edge="1" parent="1">
          <mxGeometry width="50" height="50" relative="1" as="geometry">
            <mxPoint x="390" y="370" as="sourcePoint" />
            <mxPoint x="330" y="460" as="targetPoint" />
          </mxGeometry>
        </mxCell>
        <mxCell id="AeEtlu6i-WRHQ5X1fALI-14" value="Фильтрация контента по категориям" style="rounded=0;whiteSpace=wrap;html=1;" vertex="1" parent="1">
          <mxGeometry x="520" y="220" width="230" height="50" as="geometry" />
        </mxCell>
        <mxCell id="AeEtlu6i-WRHQ5X1fALI-15" value="Фильтрация контента по популярности" style="rounded=0;whiteSpace=wrap;html=1;" vertex="1" parent="1">
          <mxGeometry x="70" y="220" width="230" height="50" as="geometry" />
        </mxCell>
        <mxCell id="AeEtlu6i-WRHQ5X1fALI-16" value="" style="endArrow=classic;html=1;rounded=0;" edge="1" parent="1">
          <mxGeometry width="50" height="50" relative="1" as="geometry">
            <mxPoint x="380" y="310" as="sourcePoint" />
            <mxPoint x="310" y="250" as="targetPoint" />
          </mxGeometry>
        </mxCell>
        <mxCell id="AeEtlu6i-WRHQ5X1fALI-17" value="" style="endArrow=classic;html=1;rounded=0;" edge="1" parent="1">
          <mxGeometry width="50" height="50" relative="1" as="geometry">
            <mxPoint x="450" y="310" as="sourcePoint" />
            <mxPoint x="510" y="250" as="targetPoint" />
          </mxGeometry>
        </mxCell>
        <mxCell id="AeEtlu6i-WRHQ5X1fALI-18" value="Фильтрация контента по цене (возрастание или убывание" style="rounded=0;whiteSpace=wrap;html=1;" vertex="1" parent="1">
          <mxGeometry x="130" y="470" width="265" height="50" as="geometry" />
        </mxCell>
        <mxCell id="AeEtlu6i-WRHQ5X1fALI-20" value="" style="endArrow=classic;html=1;rounded=0;" edge="1" parent="1">
          <mxGeometry width="50" height="50" relative="1" as="geometry">
            <mxPoint x="450" y="370" as="sourcePoint" />
            <mxPoint x="510" y="460" as="targetPoint" />
          </mxGeometry>
        </mxCell>
        <mxCell id="AeEtlu6i-WRHQ5X1fALI-21" value="" style="endArrow=classic;html=1;rounded=0;" edge="1" parent="1">
          <mxGeometry width="50" height="50" relative="1" as="geometry">
            <mxPoint x="419.5" y="290" as="sourcePoint" />
            <mxPoint x="419.5" y="220" as="targetPoint" />
          </mxGeometry>
        </mxCell>
        <mxCell id="AeEtlu6i-WRHQ5X1fALI-23" value="Поиск по контенту" style="rounded=0;whiteSpace=wrap;html=1;" vertex="1" parent="1">
          <mxGeometry x="310" y="150" width="230" height="50" as="geometry" />
        </mxCell>
      </root>
    </mxGraphModel>
  </diagram>
</mxfile>
